<?xml version="1.0" encoding="UTF-8"?>
<!DOCTYPE svg PUBLIC "-//W3C//DTD SVG 1.1//EN" "http://www.w3.org/Graphics/SVG/1.1/DTD/svg11.dtd">
<!-- Creator: CorelDRAW X6 -->
<svg xmlns="http://www.w3.org/2000/svg" xml:space="preserve" width="6.18055in" height="1.125in" version="1.1" style="shape-rendering:geometricPrecision; text-rendering:geometricPrecision; image-rendering:optimizeQuality; fill-rule:evenodd; clip-rule:evenodd"
viewBox="0 0 6181 1125"
 xmlns:xlink="http://www.w3.org/1999/xlink">
 <defs>
  <style type="text/css">
   <![CDATA[
    .fil0 {fill:#373435;fill-rule:nonzero}
   ]]>
  </style>
 </defs>
 <g id="Layer_x0020_1">
  <metadata id="CorelCorpID_0Corel-Layer"/>
  <polygon class="fil0" points="0,233 175,233 334,691 499,233 673,233 407,888 250,888 "/>
  <path class="fil0" d="M903 233l0 655 -165 0 0 -655 165 0zm0 -236l-165 0 0 130 165 0 0 -130z"/>
  <path class="fil0" d="M1028 128l122 0 25 106 165 0 0 131 -146 0 0 301c0,61 26,92 79,92l67 0 0 131 -147 0c-110,0 -165,-59 -165,-176l0 -584z"/>
  <path class="fil0" d="M1688 601c-79,0 -119,27 -119,81 0,58 33,87 100,87 55,0 106,-17 153,-51l0 -105c-42,-8 -86,-12 -133,-12zm-284 83c0,-130 95,-195 284,-195 44,0 89,4 133,12l0 -49c0,-59 -42,-88 -127,-88 -71,0 -151,10 -238,31l0 -131c87,-21 167,-31 238,-31 195,0 292,72 292,216l0 439 -96 0 -59 -59c-57,39 -120,59 -188,59 -160,0 -240,-68 -240,-204z"/>
  <path class="fil0" d="M2102 857l0 -62c73,25 144,37 214,37 138,0 206,-44 206,-131 0,-71 -51,-106 -153,-106l-84 0c-137,0 -206,-58 -206,-175 0,-125 91,-187 272,-187 70,0 141,10 214,31l0 62c-73,-25 -144,-37 -214,-37 -138,0 -207,44 -207,131 0,75 47,112 140,112l84 0c145,0 218,56 218,168 0,125 -91,187 -272,187 -70,0 -142,-10 -214,-31z"/>
  <path class="fil0" d="M3252 233l0 655 -48 0 -7 -84c-75,56 -159,84 -252,84 -155,0 -232,-81 -232,-244l0 -411 65 0 0 413c0,122 57,183 170,183 83,0 162,-28 239,-83l0 -513 65 0z"/>
  <path class="fil0" d="M3487 792c66,22 127,34 183,34 169,0 254,-94 254,-282 0,-168 -84,-251 -252,-251 -58,0 -119,5 -184,15l0 485zm-65 -532c74,-18 158,-27 251,-27 210,0 315,104 315,311 0,229 -106,344 -317,344 -52,0 -113,-10 -183,-31l0 268 -65 0 0 -865z"/>
  <path class="fil0" d="M4191 792c66,22 127,34 183,34 169,0 254,-94 254,-282 0,-168 -84,-251 -252,-251 -58,0 -120,5 -184,15l0 485zm-65 -532c74,-18 158,-27 251,-27 210,0 315,104 315,311 0,229 -106,344 -317,344 -52,0 -113,-10 -183,-31l0 268 -65 0 0 -865z"/>
  <path class="fil0" d="M5107 838c160,0 240,-93 240,-280 0,-183 -80,-275 -240,-275 -160,0 -240,92 -240,275 0,187 80,280 240,280zm-305 -277c0,-222 102,-334 305,-334 204,0 305,111 305,334 0,222 -102,333 -305,333 -203,0 -305,-111 -305,-333z"/>
  <path class="fil0" d="M5554 888l0 -655 47 0 8 108c66,-72 139,-108 219,-108l0 52c-78,0 -148,38 -209,114l0 488 -65 0z"/>
  <path class="fil0" d="M5930 128l46 0 12 106 196 0 0 56 -191 0 0 413c0,86 32,129 95,129l96 0 0 56 -95 0c-106,0 -160,-59 -160,-176l0 -584z"/>
 </g>
</svg>
