<?xml version="1.0" encoding="UTF-8" standalone="no"?>
<svg
   xmlns:dc="http://purl.org/dc/elements/1.1/"
   xmlns:cc="http://creativecommons.org/ns#"
   xmlns:rdf="http://www.w3.org/1999/02/22-rdf-syntax-ns#"
   xmlns:svg="http://www.w3.org/2000/svg"
   xmlns="http://www.w3.org/2000/svg"
   viewBox="0 0 593.69336 108.33333"
   height="108.33333"
   width="593.69336"
   xml:space="preserve"
   id="svg2"
   version="1.1"><metadata
     id="metadata8"><rdf:RDF><cc:Work
         rdf:about=""><dc:format>image/svg+xml</dc:format><dc:type
           rdf:resource="http://purl.org/dc/dcmitype/StillImage" /></cc:Work></rdf:RDF></metadata><defs
     id="defs6"><clipPath
       id="clipPath20"
       clipPathUnits="userSpaceOnUse"><path
         id="path18"
         d="M 0,0 H 4452.71 V 812 H 0 Z" /></clipPath></defs><g
     transform="matrix(1.3333333,0,0,-1.3333333,0,108.33333)"
     id="g10"><g
       transform="scale(0.1)"
       id="g12"><g
         id="g14"><g
           clip-path="url(#clipPath20)"
           id="g16"><path
             id="path22"
             style="fill:#ffffff;fill-opacity:1;fill-rule:nonzero;stroke:none"
             d="M 0,641.879 H 125.684 L 240.145,312.406 359.098,641.879 H 484.781 L 293.109,170.566 H 179.996 L 0,641.879" /><path
             id="path24"
             style="fill:#ffffff;fill-opacity:1;fill-rule:nonzero;stroke:none"
             d="M 649.82,641.879 V 170.566 H 530.867 v 471.313 z m 0,170.57 V 718.188 H 530.867 v 94.261 H 649.82" /><path
             id="path26"
             style="fill:#ffffff;fill-opacity:1;fill-rule:nonzero;stroke:none"
             d="m 740.316,718.188 h 87.981 l 17.953,-76.309 h 118.5 V 547.617 H 859.27 V 330.809 c 0,-43.989 18.996,-65.981 57.003,-65.981 H 964.75 V 170.566 H 858.816 c -78.996,0 -118.5,42.34 -118.5,127.032 v 420.59" /><path
             id="path28"
             style="fill:#ffffff;fill-opacity:1;fill-rule:nonzero;stroke:none"
             d="m 1215.2,377.047 c -57.17,0 -85.74,-19.453 -85.74,-58.356 0,-41.898 23.94,-62.843 71.82,-62.843 39.5,0 76.15,12.273 109.97,36.812 v 75.41 c -29.92,5.985 -61.94,8.977 -96.05,8.977 z m -204.69,-59.699 c 0,93.66 68.23,140.496 204.69,140.496 32.01,0 64.03,-2.996 96.05,-8.977 v 35.457 c 0,42.196 -30.37,63.293 -91.12,63.293 -51.47,0 -108.62,-7.484 -171.46,-22.445 v 94.262 c 62.84,14.961 119.99,22.445 171.46,22.445 140.05,0 210.08,-51.774 210.08,-155.309 V 170.566 h -69.13 l -42.2,42.192 c -41,-28.129 -86.18,-42.192 -135.55,-42.192 -115.21,0 -172.82,48.926 -172.82,146.782" /><path
             id="path30"
             style="fill:#ffffff;fill-opacity:1;fill-rule:nonzero;stroke:none"
             d="m 1513.49,193.008 v 44.887 c 52.36,-17.954 103.83,-26.926 154.41,-26.926 99.04,0 148.57,31.418 148.57,94.261 0,50.868 -36.66,76.301 -109.97,76.301 h -60.15 c -98.75,0 -148.13,41.899 -148.13,125.688 0,89.773 65.38,134.66 196.16,134.66 50.27,0 101.59,-7.484 153.96,-22.445 v -44.883 c -52.37,17.953 -103.69,26.929 -153.96,26.929 -99.36,0 -149.02,-31.421 -149.02,-94.261 0,-53.864 33.66,-80.797 100.99,-80.797 h 60.15 c 104.74,0 157.1,-40.399 157.1,-121.192 0,-89.777 -65.24,-134.664 -195.7,-134.664 -50.58,0 -102.05,7.477 -154.41,22.442" /><path
             id="path32"
             style="fill:#ffffff;fill-opacity:1;fill-rule:nonzero;stroke:none"
             d="M 2341.45,641.879 V 170.566 h -34.57 l -5.38,60.149 c -54.17,-40.106 -114.62,-60.149 -181.34,-60.149 -111.32,0 -166.98,58.5 -166.98,175.508 v 295.805 h 47.13 V 344.727 c 0,-87.977 40.69,-131.969 122.09,-131.969 59.54,0 116.86,19.898 171.92,59.703 v 369.418 h 47.13" /><path
             id="path34"
             style="fill:#ffffff;fill-opacity:1;fill-rule:nonzero;stroke:none"
             d="m 2510.44,239.691 c 47.58,-16.156 91.41,-24.238 131.51,-24.238 121.79,0 182.69,67.777 182.69,203.336 0,120.598 -60.6,180.899 -181.79,180.899 -41.9,0 -86.03,-3.594 -132.41,-10.778 z m -47.14,382.887 c 53.57,12.86 113.71,19.301 180.45,19.301 151.11,0 226.68,-74.668 226.68,-223.984 0,-164.891 -76.02,-247.329 -228.03,-247.329 -37.7,0 -81.69,7.477 -131.96,22.442 V 0 h -47.14 v 622.578" /><path
             id="path36"
             style="fill:#ffffff;fill-opacity:1;fill-rule:nonzero;stroke:none"
             d="m 3017.61,239.691 c 47.58,-16.156 91.4,-24.238 131.51,-24.238 121.79,0 182.69,67.777 182.69,203.336 0,120.598 -60.6,180.899 -181.79,180.899 -41.9,0 -86.04,-3.594 -132.41,-10.778 z m -47.14,382.887 c 53.56,12.86 113.71,19.301 180.45,19.301 151.11,0 226.68,-74.668 226.68,-223.984 0,-164.891 -76.02,-247.329 -228.03,-247.329 -37.7,0 -81.69,7.477 -131.96,22.442 V 0 h -47.14 v 622.578" /><path
             id="path38"
             style="fill:#ffffff;fill-opacity:1;fill-rule:nonzero;stroke:none"
             d="m 3676.9,206.473 c 115.21,0 172.82,67.179 172.82,201.543 0,131.968 -57.61,197.957 -172.82,197.957 -115.21,0 -172.82,-65.989 -172.82,-197.957 0,-134.364 57.61,-201.543 172.82,-201.543 z m -219.95,199.75 c 0,160.09 73.31,240.144 219.95,240.144 146.63,0 219.95,-80.054 219.95,-240.144 0,-159.797 -73.32,-239.696 -219.95,-239.696 -146.04,0 -219.35,79.899 -219.95,239.696" /><path
             id="path40"
             style="fill:#ffffff;fill-opacity:1;fill-rule:nonzero;stroke:none"
             d="m 3998.83,170.566 v 471.313 h 33.67 l 5.83,-78.106 c 47.28,52.071 99.94,78.106 158.01,78.106 v -37.703 c -56.27,0 -106.39,-27.383 -150.37,-82.145 V 170.566 h -47.14" /><path
             id="path42"
             style="fill:#ffffff;fill-opacity:1;fill-rule:nonzero;stroke:none"
             d="m 4269.56,718.188 h 33.22 l 8.53,-76.309 h 141.4 V 601.48 H 4315.35 V 303.883 c 0,-61.945 22.74,-92.914 68.22,-92.914 h 69.14 v -40.403 h -68.24 c -76.61,0 -114.91,42.34 -114.91,127.032 v 420.59" /></g></g></g></g></svg>